

<?xml version="1.0" encoding="iso-8859-1"?>
<svg xmlns="http://www.w3.org/2000/svg" version="1.1" width="512" height="512" x="0" y="0" viewBox="0 0 24 24"
    style="enable-background:new 0 0 512 512" xml:space="preserve" class=""><g><path fill="#2196f3" d="M14.077 16.79a.75.75 0 0 0-.448-.489l-3.857-1.5a.748.748 0 0 0-1.022.699v6.75c0 .324.209.611.516.713L9.5 23c.234 0 .461-.11.604-.306l3.856-5.25a.742.742 0 0 0 .117-.654z" data-original="#2196f3"></path><path fill="#64b5f6" d="M23.686.139a.752.752 0 0 0-.783-.054l-22.5 11.75a.75.75 0 0 0 .106 1.375l19.75 6.75.241.04a.757.757 0 0 0 .391-.109.76.76 0 0 0 .352-.53l2.75-18.5a.757.757 0 0 0-.307-.722z" data-original="#64b5f6"></path><path fill="#579ed6" d="M23.249 0a.748.748 0 0 0-.347.085l-22.5 11.75a.75.75 0 0 0 .106 1.375l7.631 2.608L23.759.198a.762.762 0 0 0-.51-.198z" data-original="#579ed6"></path></g></svg>