<?xml version="1.0" encoding="iso-8859-1"?>

<svg xmlns="http://www.w3.org/2000/svg" version="1.1" xmlns:xlink="http://www.w3.org/1999/xlink" xmlns:svgjs="http://svgjs.com/svgjs" width="512" height="512" x="0" y="0" viewBox="0 0 512 512" style="enable-background:new 0 0 512 512" xml:space="preserve" class=""><g><g fill-rule="evenodd"><path fill="#1c75bc" d="M255.747.422c141.384 0 256.007 114.587 256.007 255.963S397.131 512.42 255.747 512.42s-256-114.659-256-256.035S114.371.422 255.747.422z" data-original="#0291f7" class=""></path><path fill="#ffffff" d="M370.517 210a11.419 11.419 0 1 1 11.418-11.412A11.428 11.428 0 0 1 370.517 210zm0-30.827a19.41 19.41 0 1 0 19.411 19.415 19.44 19.44 0 0 0-19.411-19.415zM319.068 210a11.419 11.419 0 1 1 11.413-11.412A11.43 11.43 0 0 1 319.068 210zm0-30.827a19.41 19.41 0 1 0 19.406 19.415 19.447 19.447 0 0 0-19.406-19.415zm99.184 90.027V127.962a2.7 2.7 0 0 0-2.7-2.7H222.579a2.7 2.7 0 0 0-2.7 2.7V195h28.659a19.4 19.4 0 0 1 38.143 0h2.246a10.707 10.707 0 0 1 10.7 10.688V271.9h14.141a4.006 4.006 0 0 1 2.941 1.281 121.833 121.833 0 0 0 63.883 36.679c-7.76-7.992-12.416-19.211-13.9-33.549a3.992 3.992 0 0 1 3.98-4.411h44.891a2.706 2.706 0 0 0 2.7-2.7zM256.787 195a11.4 11.4 0 0 1 21.652 0zm34.84 151.924a2.706 2.706 0 0 1-2.7 2.7h-91.195a3.957 3.957 0 0 0-2.932 1.288 121.861 121.861 0 0 1-63.883 36.664c7.751-7.99 12.41-19.208 13.9-33.547a3.984 3.984 0 0 0-3.974-4.405H95.948a2.706 2.706 0 0 1-2.7-2.7V205.683a2.7 2.7 0 0 1 2.7-2.7h192.975a2.705 2.705 0 0 1 2.7 2.7z" data-original="#ffffff" class=""></path></g></g></svg>