<?xml version="1.0" encoding="iso-8859-1"?>

<svg xmlns="http://www.w3.org/2000/svg" version="1.1" width="512" height="512" x="0" y="0" viewBox="0 0 512 512"
    style="enable-background:new 0 0 512 512" xml:space="preserve" class=""><g><g fill-rule="evenodd"><path fill="#ffcd00" d="M255.754.417c141.376 0 256 114.587 256 256.035 0 141.376-114.623 255.963-256 255.963s-256-114.587-256-255.963C-.249 115 114.363.417 255.754.417z" data-original="#ffcd00"></path><path fill="#ffffff" d="M354.127 227.469h-196.75a13.853 13.853 0 0 0 0 27.706h196.75a13.853 13.853 0 0 0 0-27.706zm0 36.47h-196.75a13.853 13.853 0 0 0 0 27.706h196.75a13.853 13.853 0 0 0 0-27.706zm-196.75-45.234h115.27a13.853 13.853 0 0 0 0-27.706h-115.27a13.853 13.853 0 0 0 0 27.706zm98.376 144.449a192.4 192.4 0 0 1-52.109-7.076 3.817 3.817 0 0 0-3.4.683 170.864 170.864 0 0 1-75.944 34.311c15.184-12.582 23.227-32.706 23.96-60.092a3.819 3.819 0 0 0-1.464-3.108c-29.616-23.07-45.923-53.809-45.923-86.549 0-67.179 69.479-121.836 154.884-121.836s154.881 54.657 154.881 121.836-69.486 121.831-154.885 121.831zM370.325 149.5c30.907 24.466 47.926 57.076 47.926 91.827s-17.019 67.359-47.926 91.825c-30.637 24.263-71.332 37.623-114.572 37.623a200.187 200.187 0 0 1-52.3-6.845 178.507 178.507 0 0 1-96.7 37.021c-.093.006-.186.012-.279.012a3.809 3.809 0 0 1-1.4-7.348c22.607-8.988 34.236-28.933 35.515-60.936-30.539-24.412-47.327-56.786-47.327-91.352 0-34.751 17.019-67.361 47.923-91.827 30.643-24.263 71.332-37.624 114.578-37.624s83.925 13.357 114.562 37.624z" data-original="#ffffff"></path></g></g></svg>