<?xml version="1.0" encoding="iso-8859-1"?>

<svg xmlns="http://www.w3.org/2000/svg" version="1.1" width="512" height="512" x="0" y="0" viewBox="0 0 512 512" style="enable-background:new 0 0 512 512" xml:space="preserve" class=""><g><g fill-rule="evenodd" clip-rule="evenodd"><path fill="#1c75bc" d="M255.997.007c-141.156 0-256 114.844-256 256 0 141.16 114.844 256 256 256 141.16 0 256.004-114.84 256.004-256C512 114.851 397.157.007 255.997.007z" data-original="#ff405c" class=""></path><path fill="#1c75bc" d="M269.845 511.629c110.122-5.9 201.974-81.716 231.869-183.747l-99.461-99.461a12.002 12.002 0 0 0-1.223-1.135l-137.504-110.9a11.994 11.994 0 0 0-15.061 0l-137.5 110.9a12.01 12.01 0 0 0-3.788 13.337 12.008 12.008 0 0 0 3.109 4.757l39.179 39.186v101.722a11.97 11.97 0 0 0 3.796 8.758z" data-original="#d01273" class=""></path><path fill="#ffffff" d="M350.528 224.627c-6.632 0-11.999 5.372-11.999 11.999V374.29h-35.472v-93.423c0-6.627-5.367-11.999-11.999-11.999H220.94c-6.631 0-11.999 5.372-11.999 11.999v93.423h-35.472V236.626c0-6.627-5.372-11.999-11.999-11.999h-8.983l103.509-83.484 103.514 83.484zm50.503 2.659-137.504-110.9a11.992 11.992 0 0 0-15.06 0l-137.5 110.9a12.01 12.01 0 0 0-3.788 13.337 12.008 12.008 0 0 0 11.318 8.006h30.97v137.66c0 6.627 5.372 12.003 12.003 12.003h59.469c6.619 0 11.999-5.376 11.999-12.003v-93.423h46.12v93.423c0 6.627 5.38 12.003 11.999 12.003h59.47c6.631 0 12.003-5.376 12.003-12.003v-137.66h30.97c5.088 0 9.619-3.209 11.318-8.006a12.009 12.009 0 0 0-3.787-13.337z" data-original="#ffffff"></path></g></g></svg>