<?xml version="1.0" encoding="iso-8859-1"?>

<svg xmlns="http://www.w3.org/2000/svg" version="1.1" width="512" height="512" x="0" y="0" viewBox="0 0 3.895 3.895"
    style="enable-background:new 0 0 512 512" xml:space="preserve" class=""><g><circle cx="1.947" cy="1.947" r="1.947" fill="#1c75bc" data-original="#00ccff" class=""></circle><path fill="#ffffff" d="m1.96 1.27.85.867v.953h-.518v-.613c0-.159-.15-.288-.332-.288-.183 0-.332.13-.332.288v.613H1.11v-.953zm-1.244.9a.135.135 0 0 0 .19.002l1.045-1.043 1.037 1.034a.135.135 0 0 0 .19 0 .136.136 0 0 0 0-.192L2.048.844a.134.134 0 0 0-.083-.038.134.134 0 0 0-.11.038L.717 1.979a.136.136 0 0 0 0 .192z" data-original="#ffffff" class=""></path></g></svg>