<?xml version="1.0" encoding="iso-8859-1"?>

<svg xmlns="http://www.w3.org/2000/svg" version="1.1" width="512" height="512" x="0" y="0" viewBox="0 0 512 512"
    style="enable-background:new 0 0 512 512" xml:space="preserve" class=""><g><path fill="#2196f3" d="M65.15 149.072h381.7c29.906 0 54.15 24.244 54.15 54.15v105.556c0 29.906-24.244 54.15-54.15 54.15H65.15c-29.906 0-54.15-24.244-54.15-54.15V203.222c0-29.906 24.244-54.15 54.15-54.15z" data-original="#f5d367" class=""></path><path fill="#f7f5fb" d="M40.328 201.855h.957c5.428 0 9.828 4.4 9.828 9.828v67.897c0 6.025 4.885 10.91 10.91 10.91h9.297c5.428 0 9.828 4.4 9.828 9.828 0 5.427-4.4 9.827-9.828 9.827H41.41c-6.025 0-10.91-4.885-10.91-10.91v-87.552c0-5.428 4.4-9.828 9.828-9.828zM152.056 199.267c13.584.912 25.391 6.412 35.42 16.501 11.025 11.091 16.538 24.612 16.538 40.563 0 15.803-5.439 29.177-16.317 40.121a53.75 53.75 0 0 1-39.594 16.417c-16.255 0-29.76-5.619-40.516-16.858-22.067-22.465-21.745-58.565.72-80.633a57.033 57.033 0 0 1 9.604-7.592 57.392 57.392 0 0 1 34.145-8.519zm-4.322 20.035a33.99 33.99 0 0 0-25.277 10.454c-6.829 6.969-10.243 15.828-10.243 26.576 0 11.975 4.299 21.447 12.897 28.416a35.351 35.351 0 0 0 22.991 8.171 33.575 33.575 0 0 0 24.982-10.601c6.878-7.067 10.317-15.779 10.318-26.134a36.175 36.175 0 0 0-10.391-26.171 33.898 33.898 0 0 0-25.277-10.711zM316.327 226.538l-.833.823a9.698 9.698 0 0 1-12.704.939 41.36 41.36 0 0 0-26.009-8.999c-10.661 0-19.589 3.534-26.784 10.601a34.76 34.76 0 0 0-10.794 25.766 35.67 35.67 0 0 0 11.201 26.576c7.468 7.264 16.68 10.896 27.636 10.896 7.124 0 13.131-1.497 18.02-4.491a27.469 27.469 0 0 0 7.066-6.3 4.734 4.734 0 0 0-3.614-7.76h-13.306c-5.346 0-9.681-4.334-9.681-9.681 0-5.346 4.334-9.681 9.681-9.681h40.229a4.716 4.716 0 0 1 4.714 4.564 53.025 53.025 0 0 1-7.362 26.944 51.477 51.477 0 0 1-19.067 19.435c-7.803 4.466-16.956 6.699-27.459 6.699-11.239 0-21.263-2.442-30.072-7.325a53.583 53.583 0 0 1-20.907-20.87 58.2 58.2 0 0 1-7.693-29.226 54.32 54.32 0 0 1 14.208-37.397c11.238-12.613 25.863-18.919 43.875-18.919a66.828 66.828 0 0 1 26.428 5.227 51.951 51.951 0 0 1 12.555 7.791c4.14 3.403 4.738 9.519 1.335 13.659a9.314 9.314 0 0 1-.663.729zM361.284 201.855c5.651 0 10.233 4.581 10.233 10.233v87.825c0 5.651-4.581 10.233-10.233 10.233s-10.233-4.581-10.233-10.233v-87.825c.001-5.652 4.582-10.233 10.233-10.233zM407.598 201.855c4.338 0 8.382 2.194 10.746 5.831l42.543 65.43v-60.955c0-5.692 4.614-10.306 10.306-10.306 5.692 0 10.306 4.614 10.306 10.306v85.165c0 7.079-5.739 12.818-12.818 12.818h-.063c-4.334 0-8.374-2.19-10.74-5.822l-42.486-65.218v60.734c0 5.692-4.614 10.306-10.306 10.306-5.692 0-10.306-4.614-10.306-10.306v-85.165c0-7.079 5.739-12.818 12.818-12.818z" data-original="#f7f5fb" class=""></path><path fill="#1e88e5" d="M133.48 362.93H65.15c-29.906-.001-54.149-24.244-54.15-54.15V203.22c-.001-23.565 15.233-44.427 37.68-51.6a497.204 497.204 0 0 0 84.8 211.31z" data-original="#e2c061" class=""></path><path fill="#9e9e9e" d="M40.328 201.855h.957c5.428 0 9.828 4.4 9.828 9.828v67.897c0 6.025 4.885 10.91 10.91 10.91h9.297c5.428 0 9.828 4.4 9.828 9.828 0 5.427-4.4 9.827-9.828 9.827H41.41c-6.025 0-10.91-4.885-10.91-10.91v-87.552c0-5.428 4.4-9.828 9.828-9.828z" data-original="#e4e3e8" class=""></path><path d="M446.85 368.93H65.15C31.984 368.929 5.001 341.945 5 308.78V245a6 6 0 1 1 12 0v63.78c.001 26.549 21.601 48.148 48.15 48.149h381.7c26.549-.001 48.149-21.601 48.15-48.149V203.22c-.001-26.549-21.602-48.149-48.15-48.15H65.15c-23.049 0-42.936 16.429-47.288 39.063a5.998 5.998 0 0 1-7.025 4.759 6 6 0 0 1-4.759-7.025c5.436-28.274 30.279-48.797 59.072-48.797h381.7c33.166.001 60.149 26.984 60.15 60.15v105.56c-.001 33.165-26.984 60.149-60.15 60.15z" fill="#616161" data-original="#000000" class=""></path><path d="M11 230a6 6 0 0 1-6-6v-10a6 6 0 0 1 12 0v10a6 6 0 0 1-6 6zM71.32 316.145H41.41c-9.324 0-16.91-7.585-16.91-16.909v-87.553c0-8.728 7.1-15.828 15.828-15.828h.957c8.728 0 15.828 7.1 15.828 15.828v67.897a4.916 4.916 0 0 0 4.91 4.91h9.297c8.728 0 15.828 7.1 15.828 15.827-.001 8.728-7.101 15.828-15.828 15.828zm-30.992-108.29a3.833 3.833 0 0 0-3.828 3.828v87.553a4.915 4.915 0 0 0 4.91 4.909h29.91a3.832 3.832 0 0 0 3.828-3.828 3.832 3.832 0 0 0-3.828-3.826h-9.297c-9.324 0-16.91-7.586-16.91-16.91v-67.897a3.833 3.833 0 0 0-3.828-3.828h-.957zM149.01 318.877c-.32 0-.638-.003-.958-.008-17.856-.013-32.93-6.307-44.8-18.71-11.741-11.952-18.155-27.835-18.005-44.667s6.846-32.598 18.854-44.394a63.161 63.161 0 0 1 10.614-8.391c11.372-7.068 24.416-10.326 37.743-9.426 15.018 1.008 28.232 7.15 39.273 18.258 12.131 12.204 18.282 27.274 18.283 44.792 0 17.371-6.077 32.293-18.062 44.351-11.169 11.575-26.793 18.194-42.942 18.195zm-.86-113.741c-9.579 0-18.872 2.649-27.072 7.746a51.115 51.115 0 0 0-8.567 6.776c-9.722 9.55-15.143 22.313-15.264 35.94s5.071 26.485 14.621 36.207c9.719 10.154 21.554 15.063 36.235 15.063l.103.001c13.191.24 26.012-5.091 35.174-14.584 9.868-9.93 14.635-21.669 14.635-35.955 0-14.434-4.839-26.319-14.793-36.333-9.049-9.104-19.375-13.927-31.566-14.745a53.544 53.544 0 0 0-3.506-.116zm.441 93.787c-.167 0-.333-.001-.5-.004-.123.002-.247.002-.37.002a41.387 41.387 0 0 1-26.446-9.562c-9.974-8.082-15.061-19.211-15.061-33.028 0-12.323 4.022-22.677 11.958-30.775 7.66-7.988 18.449-12.471 29.58-12.255a39.982 39.982 0 0 1 29.584 12.554c7.899 8.049 12.294 19.12 12.065 30.394-.015 11.877-4.045 22.043-11.979 30.215a39.665 39.665 0 0 1-28.831 12.459zm-.488-12.004.088.001c7.717.1 15.22-3.06 20.518-8.707l.076-.079c5.798-5.958 8.617-13.138 8.617-21.95l.001-.131c.177-8.1-2.982-16.056-8.668-21.829a10.206 10.206 0 0 1-.103-.107c-5.369-5.729-12.949-8.929-20.801-8.815a8.74 8.74 0 0 1-.229 0c-7.823-.16-15.403 2.966-20.814 8.608-5.785 5.903-8.574 13.222-8.574 22.421 0 10.164 3.492 17.933 10.675 23.755 5.327 4.431 11.983 6.835 18.831 6.835.106 0 .211 0 .317-.002zM277.263 318.869c-12.217 0-23.313-2.718-32.981-8.078a59.504 59.504 0 0 1-23.244-23.204c-5.562-9.714-8.496-20.84-8.447-32.111-.202-15.384 5.4-30.11 15.778-41.471 12.323-13.832 28.592-20.873 48.306-20.873l.565-.002a72.369 72.369 0 0 1 28.188 5.698 58.065 58.065 0 0 1 14.086 8.725c3.194 2.625 5.203 6.391 5.611 10.566s-.834 8.259-3.498 11.5c-.333.406-.695.804-1.075 1.18l-.006.006-.833.824c-5.438 5.493-14.278 6.147-20.519 1.476a7.618 7.618 0 0 1-.142-.109c-6.293-5.01-14.191-7.733-22.235-7.693-9.146 0-16.532 2.905-22.616 8.881-5.879 5.595-9.134 13.365-9 21.385v.205a29.726 29.726 0 0 0 9.316 22.105c6.432 6.254 14.103 9.262 23.521 9.262 5.97 0 10.979-1.214 14.886-3.606a21.304 21.304 0 0 0 3.738-2.944h-10.457c-8.646 0-15.681-7.034-15.681-15.681s7.034-15.681 15.681-15.681h40.229a10.671 10.671 0 0 1 10.713 10.565 59.064 59.064 0 0 1-8.156 29.928 57.503 57.503 0 0 1-21.252 21.634c-8.723 4.993-18.965 7.513-30.476 7.513zm-.068-113.739c-.159 0-.317 0-.476.002-16.416 0-29.303 5.532-39.441 16.911-8.374 9.167-12.862 20.981-12.688 33.322v.116a52.265 52.265 0 0 0 6.9 26.212c4.373 7.872 10.792 14.281 18.604 18.601 7.873 4.365 17.011 6.576 27.168 6.576 9.394 0 17.63-1.987 24.479-5.907a45.455 45.455 0 0 0 16.805-17.146l.075-.13a47.053 47.053 0 0 0 6.506-22.458h-38.92c-2.029 0-3.681 1.651-3.681 3.681s1.651 3.681 3.681 3.681h13.306c2.513.014 4.929.895 6.837 2.481a10.66 10.66 0 0 1 3.825 7.267 10.66 10.66 0 0 1-2.381 7.784 33.374 33.374 0 0 1-8.574 7.629c-5.849 3.582-12.965 5.39-21.18 5.39-12.521 0-23.227-4.237-31.819-12.595-8.426-7.938-13.192-19.212-13.019-30.878a40.867 40.867 0 0 1 12.659-30.11c8.254-8.109 18.68-12.254 30.92-12.254 10.699-.047 21.24 3.568 29.657 10.234a3.714 3.714 0 0 0 4.792-.396l.873-.863a3.709 3.709 0 0 0-.256-5.492 46.108 46.108 0 0 0-11.152-6.93c-7.431-3.129-15.361-4.728-23.5-4.728zm39.132 21.408h.01zM361.284 316.145c-8.95 0-16.232-7.282-16.232-16.232v-87.824c0-8.951 7.282-16.233 16.232-16.233s16.232 7.282 16.232 16.233v87.824c.001 8.949-7.282 16.232-16.232 16.232zm0-108.29a4.237 4.237 0 0 0-4.232 4.233v87.824c0 2.334 1.898 4.232 4.232 4.232s4.232-1.898 4.232-4.232v-87.824a4.236 4.236 0 0 0-4.232-4.233zM468.682 316.145c-6.451 0-12.345-3.195-15.83-8.547l-31.459-48.29v40.531c0 8.991-7.315 16.306-16.307 16.306s-16.306-7.314-16.306-16.306v-85.166c0-10.376 8.441-18.818 18.817-18.818 6.395 0 12.292 3.2 15.776 8.561l31.514 48.466v-40.721c0-8.991 7.314-16.306 16.306-16.306s16.307 7.315 16.307 16.306v85.166c0 10.376-8.441 18.818-18.818 18.818zm-53.289-83.041a6 6 0 0 1 5.027 2.726l42.486 65.218a6.794 6.794 0 0 0 5.712 3.097c3.823 0 6.882-3.059 6.882-6.817v-85.166a4.31 4.31 0 0 0-4.307-4.306 4.311 4.311 0 0 0-4.306 4.306v60.955a6 6 0 0 1-11.03 3.271l-42.544-65.43a6.795 6.795 0 0 0-5.716-3.102 6.825 6.825 0 0 0-6.817 6.818v85.166a4.311 4.311 0 0 0 4.306 4.306 4.312 4.312 0 0 0 4.307-4.306v-60.734a5.998 5.998 0 0 1 4.292-5.751 5.947 5.947 0 0 1 1.708-.251zM256 129.848a6 6 0 0 1-6-6V34.569a6 6 0 0 1 12 0v89.279a6 6 0 0 1-6 6zM355.24 129.848a5.998 5.998 0 0 1-4.242-10.242l63.13-63.13a5.999 5.999 0 0 1 8.484 0 5.998 5.998 0 0 1 0 8.485l-63.13 63.13a5.98 5.98 0 0 1-4.242 1.757zM156.76 129.848a5.98 5.98 0 0 1-4.243-1.757l-63.13-63.13a6 6 0 0 1 8.485-8.485l63.13 63.13a6 6 0 0 1-4.242 10.242zM256 483.431a6 6 0 0 1-6-6v-89.278a6 6 0 0 1 12 0v89.278a6 6 0 0 1-6 6zM418.37 457.282a5.979 5.979 0 0 1-4.242-1.758l-63.13-63.13a5.997 5.997 0 0 1 0-8.484 5.997 5.997 0 0 1 8.484 0l63.13 63.13a5.997 5.997 0 0 1 0 8.484 5.979 5.979 0 0 1-4.242 1.758zM93.63 457.282a5.999 5.999 0 0 1-4.243-10.242l63.13-63.13a5.998 5.998 0 0 1 8.485 0 5.999 5.999 0 0 1 0 8.484l-63.13 63.13a5.977 5.977 0 0 1-4.242 1.758z" fill="#616161" data-original="#000000" class=""></path></g></svg>
