<?xml version="1.0" encoding="iso-8859-1"?>

<svg xmlns="http://www.w3.org/2000/svg" version="1.1" width="512" height="512" x="0" y="0" viewBox="0 0 512 512"
    style="enable-background:new 0 0 512 512" xml:space="preserve" class=""><g><g data-name="Layer 2"><circle cx="256" cy="256" r="256" fill="#1c75bc" data-original="#ff2147" class=""></circle><g fill="#fff"><path d="M324.51 283.12v-68.88a68.54 68.54 0 0 0-47.7-65.24v-12.19A20.81 20.81 0 0 0 256 116a20.81 20.81 0 0 0-20.81 20.81V149a68.54 68.54 0 0 0-47.7 65.29v68.88a27.32 27.32 0 0 0-22.13 26.81 27.31 27.31 0 0 0 27.31 27.3h126.66a27.31 27.31 0 0 0 27.31-27.3 27.32 27.32 0 0 0-22.13-26.86zM218.6 355.9h74.8v2.7A37.4 37.4 0 0 1 256 396a37.4 37.4 0 0 1-37.4-37.4v-2.7z" fill="#ffffff" data-original="#ffffff"></path></g></g></g></svg>