<?xml version="1.0" encoding="iso-8859-1"?>

<svg xmlns="http://www.w3.org/2000/svg" version="1.1" xmlns:xlink="http://www.w3.org/1999/xlink" xmlns:svgjs="http://svgjs.com/svgjs" width="512" height="512" x="0" y="0" viewBox="0 0 60 60" style="enable-background:new 0 0 512 512" xml:space="preserve" class=""><g><path fill="#2196f3" d="M42 59H2.033a1.011 1.011 0 0 1-1-1.075A12.529 12.529 0 0 1 4.385 50C6.923 47 15 44 15 44h27z" data-original="#f29c1f" class=""></path><path fill="#1d81d1" d="M33.69 47c-1.27 1.38-4.51 4-10.69 4-7.91 0-11-4.29-11.33-4.78l-.42-.63C13.32 44.62 15 44 15 44s2 3 8 3a11.841 11.841 0 0 0 6.36-1.57A3 3 0 0 0 32 47z" data-original="#e57e25" class=""></path><path fill="#fdd7ad" d="m30 36-.64 9.43A11.841 11.841 0 0 1 23 47c-6 0-8-3-8-3a14.947 14.947 0 0 0 1.24-5.63 16.593 16.593 0 0 0-.14-2.78z" data-original="#fdd7ad"></path><path fill="#f9c795" d="m30 36-.16 2.29-1.39 1.22A5.987 5.987 0 0 1 24.5 41h-3a5.987 5.987 0 0 1-3.95-1.49l-1.31-1.14a16.593 16.593 0 0 0-.14-2.78z" data-original="#f9c795" class=""></path><path fill="#fdd7ad" d="M37.73 22.58a2.315 2.315 0 0 0-.311.39L35 27h-3a3 3 0 0 0-3 3v6.37l-1.87 1.64a3.979 3.979 0 0 1-2.63.99h-3a3.979 3.979 0 0 1-2.63-.99l-5.5-4.81A4.008 4.008 0 0 1 12 30.18V28a3.99 3.99 0 1 1 0-7.98s-6-9.98 2-13.97c0 0 4.64-8.33 15.7-3.59a.5.5 0 0 1 .02.91 3.5 3.5 0 0 0-1.35 1.09.5.5 0 0 0 .24.78c1.88.61 7.39 2.83 7.39 7.79 0 5.99-2 6.99-2 6.99a3.987 3.987 0 0 1 3.73 2.56z" data-original="#fdd7ad"></path><path fill="#f09372" d="M25 33h-4a1 1 0 0 1 0-2h4a1 1 0 0 1 0 2z" data-original="#f09372" class=""></path><path fill="#f9c795" d="M24 36h-2a1 1 0 0 1 0-2h2a1 1 0 0 1 0 2z" data-original="#f9c795" class=""></path><path fill="#3b97d3" d="M18 25a1 1 0 0 1-1-1v-1a1 1 0 1 1 2 0v1a1 1 0 0 1-1 1zM28 25a1 1 0 0 1-1-1v-1a1 1 0 1 1 2 0v1a1 1 0 0 1-1 1z" data-original="#3b97d3" class=""></path><path fill="#f9c795" d="M24 29h-2a1 1 0 0 1 0-2h2a1 1 0 0 1 0 2z" data-original="#f9c795" class=""></path><g fill="#a56a43"><path d="M20 21h-4a1 1 0 1 1 0-2h4a1 1 0 0 1 0 2zM30 21h-4a1 1 0 0 1 0-2h4a1 1 0 0 1 0 2z" fill="#a56a43" data-original="#a56a43" class=""></path><path d="M36 13.03c0 5.99-2 6.99-2 6.99V20a4.333 4.333 0 0 0-2-4c-8 1-8-1-14-3s-6 7-6 7v.02s-6-9.98 2-13.97c0 0 4.64-8.33 15.7-3.59a.5.5 0 0 1 .02.91 3.5 3.5 0 0 0-1.35 1.09.5.5 0 0 0 .24.78c1.88.61 7.39 2.83 7.39 7.79z" fill="#a56a43" data-original="#a56a43" class=""></path></g><path fill="#547580" d="M59 30v14a3 3 0 0 1-3 3H32a3 3 0 0 1-3-3V30a3 3 0 0 1 3-3h3l2.419-4.03a2 2 0 0 1 1.713-.97h5.736a2 2 0 0 1 1.715.971L49 27h7a3 3 0 0 1 3 3z" data-original="#547580" class=""></path><rect width="14" height="12" x="33" y="30.999" fill="#67b9cc" rx="2" data-original="#67b9cc"></rect><circle cx="53" cy="32.999" r="2" fill="#35495e" data-original="#35495e" class=""></circle><path fill="#3f5c6c" d="M54 40h-2a1 1 0 0 1 0-2h2a1 1 0 0 1 0 2zM54 44h-2a1 1 0 0 1 0-2h2a1 1 0 0 1 0 2zM37 47h14v2a2 2 0 0 1-2 2H39a2 2 0 0 1-2-2v-2z" data-original="#3f5c6c" class=""></path><path fill="#35495e" d="M41 51h6v7a1 1 0 0 1-1 1h-4a1 1 0 0 1-1-1v-7z" data-original="#35495e" class=""></path></g></svg>